<svg xmlns="http://www.w3.org/2000/svg" xmlns:xlink="http://www.w3.org/1999/xlink" width="147.847" height="132.578" viewBox="0 0 147.847 132.578"><defs><style>.a{fill:#fff;}.b{fill:#ed1c24;}.c{filter:url(#a);}</style><filter id="a" x="0" y="63.109" width="147.847" height="69.469" filterUnits="userSpaceOnUse"><feOffset dy="4" input="SourceAlpha"/><feGaussianBlur stdDeviation="2" result="b"/><feFlood flood-opacity="0.161"/><feComposite operator="in" in2="b"/><feComposite in="SourceGraphic"/></filter></defs><g transform="translate(-106.077 -75)"><g class="c" transform="matrix(1, 0, 0, 1, 106.08, 75)"><path class="a" d="M1408.634-364.48v-57.469h135.847v18.958a38.526,38.526,0,0,1-38.5,38.511Z" transform="translate(-1402.63 487.06)"/></g><g transform="translate(122 75)"><path class="b" d="M1408.634-396.949v-113h83.693a33.029,33.029,0,0,1,33.1,32.921v47.157a33.029,33.029,0,0,1-33.1,32.922Z" transform="translate(-1408.634 509.949)"/><g transform="translate(10.151 85.311)"><path class="a" d="M1428.335-325.388v-16.879h10.309a5.121,5.121,0,0,1,5.133,5.1v6.67a5.121,5.121,0,0,1-5.133,5.1Zm4.431-4.406h5.879a.7.7,0,0,0,.7-.7v-6.67a.7.7,0,0,0-.7-.7h-5.879Z" transform="translate(-1428.335 342.884)"/><path class="a" d="M1477.028-330.49a5.133,5.133,0,0,1-5.145,5.116H1466.7a5.133,5.133,0,0,1-5.144-5.116v-6.661a5.133,5.133,0,0,1,5.144-5.116h5.181a5.133,5.133,0,0,1,5.145,5.116Zm-4.441-6.661a.7.7,0,0,0-.7-.7H1466.7a.7.7,0,0,0-.7.7v6.661a.7.7,0,0,0,.7.7h5.181a.7.7,0,0,0,.7-.7Z" transform="translate(-1444.44 342.884)"/><path class="a" d="M1499.229-342.262V-330.5a.7.7,0,0,0,.7.7h6.912l-1.382,4.412h-5.53a5.128,5.128,0,0,1-5.139-5.111v-11.765Z" transform="translate(-1460.55 342.881)"/><path class="a" d="M1556.8-329.782a.707.707,0,0,0,.679-.482l3.657-12h4.6l-3.925,12.89a5.339,5.339,0,0,1-5.015,4h-.824a5.124,5.124,0,0,1-5.135-5.108v-11.782h4.433v11.782a.7.7,0,0,0,.7.7Z" transform="translate(-1487.718 342.881)"/><path class="a" d="M1528.564-342.262h-.823a5.336,5.336,0,0,0-5.011,4l-3.921,12.88h4.6l1.082-3.549h3.16v-4.405h-1.817l1.23-4.035a.705.705,0,0,1,.678-.482h.823a.7.7,0,0,1,.7.7v11.772h4.43v-11.772A5.121,5.121,0,0,0,1528.564-342.262Z" transform="translate(-1472.192 342.881)"/><path class="a" d="M1585.86-342.393a2.136,2.136,0,0,1,.744.1.657.657,0,0,1,.423.671.574.574,0,0,1-.267.524,1.065,1.065,0,0,1-.4.129.669.669,0,0,1,.47.26.716.716,0,0,1,.148.411v.195c0,.061,0,.127.007.2a.416.416,0,0,0,.024.138l.016.033h-.45c0-.009,0-.017-.007-.026a.3.3,0,0,1-.007-.03l-.01-.086v-.211a.644.644,0,0,0-.257-.609,1.176,1.176,0,0,0-.534-.086h-.379v1.047h-.48v-2.653Zm.514.418a1.261,1.261,0,0,0-.579-.1h-.41v.961h.433a1.329,1.329,0,0,0,.456-.059.409.409,0,0,0,.281-.415.4.4,0,0,0-.182-.388m1.292,2.63a2.421,2.421,0,0,1-1.759.711,2.411,2.411,0,0,1-1.755-.711,2.315,2.315,0,0,1-.72-1.716,2.292,2.292,0,0,1,.727-1.7,2.416,2.416,0,0,1,1.749-.7,2.434,2.434,0,0,1,1.759.7,2.287,2.287,0,0,1,.727,1.7,2.313,2.313,0,0,1-.727,1.716m-3.267-3.187a1.981,1.981,0,0,0-.622,1.471,2.01,2.01,0,0,0,.618,1.482,2.076,2.076,0,0,0,1.512.612,2.076,2.076,0,0,0,1.512-.612,2.006,2.006,0,0,0,.623-1.482,1.984,1.984,0,0,0-.623-1.471,2.082,2.082,0,0,0-1.512-.612,2.078,2.078,0,0,0-1.509.612" transform="translate(-1503.517 343.47)"/></g></g></g></svg>